<?xml version="1.0" standalone="no"?>
<!DOCTYPE svg PUBLIC "-//W3C//DTD SVG 20010904//EN"
 "http://www.w3.org/TR/2001/REC-SVG-20010904/DTD/svg10.dtd">
<svg version="1.0" xmlns="http://www.w3.org/2000/svg"
 width="1280.000000pt" height="357.000000pt" viewBox="0 0 1280.000000 357.000000"
 preserveAspectRatio="xMidYMid meet">
<metadata>
Created by potrace 1.15, written by Peter Selinger 2001-2017
</metadata>
<g transform="translate(0.000000,357.000000) scale(0.100000,-0.100000)"
fill="#000000" stroke="none">
<path d="M5492 3289 c-319 -39 -584 -223 -716 -498 -19 -40 -40 -94 -47 -121
l-13 -49 -2045 -3 -2046 -3 -52 -24 c-29 -13 -72 -45 -97 -71 -78 -84 -77 -71
-74 -761 l3 -604 28 -57 c16 -32 46 -73 69 -92 83 -72 -139 -66 2619 -66 1420
0 2498 -4 2511 -9 27 -10 137 -44 155 -47 20 -3 206 -152 325 -258 110 -99
212 -217 257 -298 29 -53 37 -58 46 -28 13 41 125 177 226 275 105 101 270
242 254 215 -5 -8 4 -5 21 7 48 34 134 74 239 112 l100 36 2466 5 2465 5 59
30 c68 35 126 103 145 169 8 29 10 221 8 656 -3 612 -3 615 -25 656 -34 63
-66 97 -125 129 l-53 30 -1980 2 c-1089 2 -2013 3 -2053 3 -60 0 -74 3 -79 18
-60 174 -115 266 -227 378 -180 180 -393 266 -656 266 -350 0 -619 -176 -765
-500 -32 -71 -36 -70 -82 30 -77 165 -212 306 -365 382 -149 73 -333 105 -496
85z"/>
</g>
</svg>
